<svg xmlns="http://www.w3.org/2000/svg" viewBox="0 0 87.795 92.73">
    <defs>
        <style>
            .illus-dog-hunter-a{fill:#dbbb75}
            .illus-dog-hunter-b{fill:#b79551}
            .illus-dog-hunter-c{fill:#493307}
            .illus-dog-hunter-d,.illus-dog-hunter-e{fill:none;stroke-linecap:round;stroke-linejoin:round;stroke-miterlimit:10;stroke-width:2px}
            .illus-dog-hunter-d{stroke:#000}
            .illus-dog-hunter-e{stroke:#493307}
        </style>
    </defs>
    <g transform="translate(-125.03 -98.122)">
        <path class="illus-dog-hunter-a" d="M135.925 121.364a53.054 53.054 0 0 1 0-12.329c.85-5.527 1.984-10.77 3.826-10.912s3.826 17.572 3.543 20.123a7.075 7.075 0 0 1 3.259-1.134c1.559 0 3.968 2.409 3.968 2.409s4.96-17.289 7.511-16.722 1.275 23.1 0 28.626c0 0 1.134 6.235 4.96 10.062s35.712 12.046 35.712 12.046 10.628-19.556 11.62-20.123c0 0 2.126 11.62-8.219 27.35 0 0 11.874 23.761 10.628 26.784 0 0-.567 1.559-7.227 1.7s-4.818-1.559-4.818-1.559l3.685-3.968s-13.179-4.535-14.6-8.5l-1.417-3.968s-12.329 3.826-18.706 3.826l.142 12.612s.142 2.409-3.543 2.409-9.636.992-10.062 0 3.259-3.685 5.385-4.535l-4.251-13.038-14.88-19.737s-2.551-8.464-.142-12.573L133.091 131s-2.693-6.66 2.834-9.636ZM142.727 156.508s1.154 5.787 2.409 7.369l-5.81 2.976s1.559 12.612-1.134 12.754-4.677-13.321-4.677-13.321-2.126-2.834 2.267-5.668 6.945-4.11 6.945-4.11Z"/>
        <path class="illus-dog-hunter-b" d="M178.013 173.376s1.7 6.66 7.652 9.353c0 0-4.96 1.984-4.677 3.543s8.644.992 8.644.992l4.349-8.2s-4.737-4.759-4.737-8.3ZM148.112 147.156s-6.235 1.906-5.81 5.629-.425 15.2 15.022 19.879c0 0-2.693-8.786-.85-12.754-.001.001-1.843-13.463-8.362-12.754Z"/>
        <path class="illus-dog-hunter-c" d="M139.984 123.688c-1.292.228-1.833 3.451-3.128 4.529s-11 3.883-11.539 5.824-.647 8.3 2.7 8.412c0 0 1.007 4.932 4.494 4.677s4.242-1.549 5-3.383c0 0 9.814-3.451 10.569-5.284s.539-3.559-2.373-3.99-5.824-3.343-5.608-6.686 1.718-4.422-.115-4.099ZM139.553 99.745c.686-.314 1.833 17.039.755 18.441s-3.475 2.373-3.571 0 .227-17.255 2.816-18.441ZM157.324 107.187c1.08.093 1.21 20.167-.623 20.275s-3.667-5.536-3.559-7.836 1.678-12.655 4.182-12.439ZM161.337 139.325s.432 15.314-.539 17.794.323 3.559 1.186 3.774 3.559-1.618 6.255-7.225c0 0-3.343 14.874 1.078 17.089s12.726-8.138 15.1-7.059 3.559 5.284 6.686 5.176 11.108-19.843 13.7-24.7 5.652-9.6 5.652-9.6.587-5.367-.491-5.26-9.26 17.881-11.524 23.469c-.005.001-28.476-5.644-37.103-13.458Z"/>
        <ellipse cx="1.288" cy="2.024" rx="1.288" ry="2.024" transform="translate(141.919 125.875)"/>
        <ellipse cx="1.043" cy="1.498" rx="1.043" ry="1.498" transform="rotate(14.377 -426.985 593.96)"/>
        <path class="illus-dog-hunter-d" d="m136.722 121.399 1.457 1.717M142.717 123.632l3.004-.945"/>
        <path d="M131.311 133.602s-2.453-.552-2.821.859 2.085 4.415 2.085 4.415 2.937-1.962 3.093-3.8-1.563-1.374-2.357-1.474Z"/>
        <path class="illus-dog-hunter-d" d="M127.935 142.346a4.942 4.942 0 0 0 2.664-4.1s.2 4.651 3.08 5.074 3.772-.634 3.772-.634"/>
        <path class="illus-dog-hunter-e" d="M161.258 187.36s-2.368 1.216-2.42 2.432M163.677 187.36s-2.334 1.049-2.42 2.432M136.626 176.828a2.082 2.082 0 0 0 2.443 0M185.928 184.52s-3.236.346-3.236 1.988M206.114 185.514s-3.63.723-3.371 3.062"/>
    </g>
</svg>
