<svg xmlns="http://www.w3.org/2000/svg" viewBox="0 0 84.413 129.025">
    <path d="M6.63 101.736s0 20.5 18.848 16.2c0 0 8.021 3.238 13.642.5l8.466-2.824 2.02-19.12a103.343 103.343 0 0 1-10.486 3.591c-3.197.696-18.438 4.629-32.49 1.653Z" fill="#585b6a"/>
    <path d="M42.337 53.698a14.6 14.6 0 0 0 3.4 13.592l.806 3.851s-6.486 17.388-5.84 24.325c0 0-3.824-4.955-7.142 1.025-1.939 3.5 5.559 18.09 5.559 18.09s-7.116-.057-5.983 3.4 9.2 1.727 10.76-.765c0 0 15.291 7.731 25.769 0 0 0 8.92 3.313 13.026 1.614s-.142-6.33-2.265-6.139c0 0 6.088-15.241-.85-18.922a4.256 4.256 0 0 0-5.805 1.841s-.566-21.38-7.079-27.751c0 0 3.54-15.716-1.416-17.7 0 0 6.371 8.07 8.778 2.265s-7.646-10.761-11.186-7.079c0 0-8.5-4.672-14.532.142 0 0-6.349-2.69-9.218 1.7l-1.7 8.684s3.927 1.225 4.918-2.173Z" fill="#f9c6a0"/>
    <path d="M3.486 82.061s2.149 17.361 3.141 19.675c.794 1.852 17.986 2.434 27.331.392 0 0-1.673-4.537.338-6.781 2.607-2.909 4.369-1.491 4.369-1.491l-.679-9.335s21.054 3.5 25.683 2.344 9.59-9.59 9.259-13.723-2.647-4.687-4.135-3.7-2.867 7.237-6.505 7.237-15.98-4.212-19.452-8.51-5.622-7.224-8.267-7.332S4.478 71.314 3.486 82.061Z" fill="#ff807c"/>
    <path d="M26.555 30.657a12.089 12.089 0 0 0-12.331 6.577c-4.11 7.947-9.59 12.331-9.865 19.455s-.08 18.093-2.988 21.97-.969 6.59 3.683 4.652c2.674 2.357.582 7.172 6.009 5.621 2.47-.969 2.213-2.714 2.213-2.714s3.415 1.938 3.215 3.88 4.264 1.357 6.4-3.877c0 0 4.086 5.758 7.56 4.071 2.3-1.118 0-4.652 0-4.652s3.1 1.551 3.683 0-3.489-8.529-1.938-14.344 17.795-38.63-5.641-40.639Z"/>
    <path fill="#f57f7c" d="M42.836 36.427s-.818-6.283-2.145-8.267-3.969-5.456-1.573-7.606 5.868 3.307 5.868 3.307 3.637-3.141 5.126-.827 1.818 7.441-7.276 13.393ZM55.403 31.962s2.178-12.461 8.763-14.329c10.491-2.976 7.109 4.739 7.109 4.739s3.968-.165 3.307 3.141-4.464 5.126-8.432 4.3a13.5 13.5 0 0 0-10.747 2.149ZM52.592 18.297c2.946.28 5.622-8.49 4.96-13.78s-3.307-4.63-4.464-4.3-2.172 2.976-2.172 2.976-3.8-1.832-4.937 2.315c-1.446 5.291 6.282 5.349 6.613 12.789Z"/>
    <path stroke="#2d2d2d" fill="none" stroke-linecap="round" stroke-miterlimit="10" d="M21.363 108.166s.4 6.75 4.113 9.049M37.986 84.52s-2.427-7.094-2.2-10.559"/>
    <path fill="#eaad83" d="M57.629 114.864a4.054 4.054 0 0 0-3.54 5.522c.991 2.549 7.3 8.513 13.168 8.637 3.4.072 1.82-1.483.708-1.841s-8.92-2.549-8.07-5.947 1.132-6.796-2.266-6.371ZM60.46 90.228c-3.165.941-2.549 4.739-.991 6.263s-.708 6.658 3.257 6.923 3.823-3.983 3.823-5.965-.853-8.778-6.089-7.221Z"/>
    <path stroke="#d18652" stroke-linejoin="round" fill="none" stroke-linecap="round" stroke-miterlimit="10" d="M41.399 96.712s5.178 6.353 5.682 12.626M73.507 97.578a14.241 14.241 0 0 0-4.189 11.76M35.767 116.473s-2.112.729-.685 3.007M79.32 114.828s2.682 1.869 2.114 3.148M82.095 114.227s1.784 1.374 1.189 2.988M47.08 46.84s-3.6 2.827-4.36 5.814M63.465 46.84s3 3 3.085 4.739"/>
    <path d="M45.262 66.744s13.439 4.056 21.767-.591a2.524 2.524 0 0 1 1.289 3.779 26.294 26.294 0 0 1-23.056.384c-3.6-1.543 0-3.572 0-3.572Z" fill="#b9e4d3"/>
</svg>
