<svg xmlns="http://www.w3.org/2000/svg" viewBox="0 0 101.144 95.445">
    <defs>
        <style>
            .illus-dog-playfull-a{fill:#ffe0d2}.illus-dog-playfull-b{fill:#8c3306}.illus-dog-playfull-d,.illus-dog-playfull-f,.illus-dog-playfull-g{fill:none;stroke-linecap:round;stroke-linejoin:round;stroke-miterlimit:10}.illus-dog-playfull-d{stroke:#000}.illus-dog-playfull-f{stroke:#ce9c89}.illus-dog-playfull-g{stroke:#70220a}
        </style>
    </defs>
    <g transform="translate(-100.215 -124.668)">
        <path class="illus-dog-playfull-a" d="M198.362 191.268c2.6-6.007 7.936-23.864-7.936-38.124 0 0 3.72-12.152-4.092-18.6s-15.582-6.448-19.137-4.96 1.9 3.224 4.009 4.34 18.513 7.068 13.057 17.733a52.193 52.193 0 0 0-10.08 1.488c-4.34 1.24-9.424 7.192-9.424 7.192l-11.852 10.292s-12.7 10.54-12.825 11.532a35.832 35.832 0 0 1-3.036 5.046c-.35-3.726-.952-6.336-1.877-6.375a35.925 35.925 0 0 0-6.248.356s-16.864 19.2-17.885 27.013 1.02 9.176 8.957 11.036 14.508-3.844 16.12-5.882c.666-.841 1.161-6.511 1.29-12.887l6.031 7.737s-6.405 2.44-5.993 7.916 8.349 3.855 10.581 3.488 11.9-2.164 14.632-3.5 4.216-9.27 5.7-12.866 14.88-11.538 14.88-11.538a8.827 8.827 0 0 1 5.208 6.076 29.116 29.116 0 0 1 .868 9.651s-6.82.534-4.96 5.92 6.572 2.751 6.572 2.751 8.06-1.757 8.68-4.336-3.844-14.491-1.24-20.499Z"/>
        <path class="illus-dog-playfull-b" d="M128.921 181.188a12.691 12.691 0 0 0-6.7 1.593s-5.208-1.488-7.812 2.976-2.356 8.518-4.712 10.769-6.725 3.063-6.9 9.539 3.61 8.419 8.232 7.666a10.327 10.327 0 0 1 2.013-7.666c2.762-3.32 7.564-5.552 9.672-7.164s2.015-11.248 3.348-14.012c1.572-3.247 2.859-3.701 2.859-3.701ZM132.889 181.177s-4.464 1.482-5.084 8.054-.648 10.912 1.846 12.4 5.222 1.06 4.974 4.436-2.108 8.212-1.24 8.584 5.828-.62 8.68-7.688c0 0 1.984 10.292 10.168 9.052 5.208-1.612 3.815-3.6.544-11.408s-.916-13.888-5.5-18.972a15.207 15.207 0 0 0-14.388-4.458ZM174.182 153.144s-15.376 6.076-20.833 16.616c-1.9 4.046 2.84 3.6 4.216 3.6s5.58 5.211 6.944 7.442 9.272 4.463 9.162-3.846-.11-7.122 2.866-8.955 7.069-8.037-2.355-14.857ZM166.47 208.201l16.764-16.49s-5.828-.992-8.382 0c-2.896 1.121-8.531 4.833-8.382 16.49Z"/>
        <circle cx="8.225" cy="8.225" r="8.225" transform="translate(114.206 124.668)" fill="#b9e4d3"/>
        <path d="M119.255 147.797s-12.379 8.144-16.451 33.391c0 0 3.162-11.35 7.492-19.709 4.036-7.788 9.273-12.582 8.959-13.682ZM111.036 148.775s-5.789 2.117-9.7 16.451c0 0 2.694-7.167 4.849-9.936s7.546-7.167 4.851-6.515ZM184.262 131.834s-11.426-2.2-16.982 11.007c-.524 1.468 1.468-1.468 4.3-4.508s6.917-6.395 12.682-6.499ZM173.675 144.307s-.419-3.249 8.176-6.289 13 .734 13.522 1.887a19.447 19.447 0 0 0-11.111-.943c-4.121.944-9.21 5.861-10.587 5.345ZM184.996 145.041c-.119 1.543 7.017 1.208 9.749 1.887a10.983 10.983 0 0 1 6.08 3.774s-.574-4.342-7.233-5.661c-4.907-.972-8.491-1.362-8.596 0Z"/>
        <path class="illus-dog-playfull-d" d="M116.018 195.553s2.488-3.354 5.3 0M129.653 195.553s3.246-3.246 5.518.974"/>
        <path d="M118.669 204.584a5.649 5.649 0 0 1 6.93 1.516 8.566 8.566 0 0 1-4.819 3.518s-2.442-1.274-2.111-5.034Z"/>
        <path d="M117.258 214.606s-2.889 3.74-1.033 4.636 5.979-1.082 6.669-2.845c0 0-2.772-1.937-2.416-4.954-.001 0 .053 1.919-3.22 3.163Z" fill="#911c0c"/>
        <path class="illus-dog-playfull-d" d="M111.774 212.215a3.758 3.758 0 0 0 3.811 2.6c5.3 0 5.194-5.194 5.194-5.194s-1.375 7.106 3.816 7.106 5.508-3.553 5.508-3.553"/>
        <path class="illus-dog-playfull-a" d="M102.466 210.931c-2.18 1.611-3.686 4.9-.095 5.534 4.738.833 8.421 1.227 8.421-3.733s-6.146-3.409-8.326-1.801ZM172.856 201.918s-.621.611.334 2.687c.62 2.356-2.211 2.519-3.72 3.6-1.736 1.736.372 3.792 2.852 3.57s5.828.15 6.448-.966.668-15.362.668-15.362Z"/>
        <path class="illus-dog-playfull-f" d="M141.574 212.13a5.024 5.024 0 0 0-3.145 4.845M144.2 214.548s-1.781.285-1.924 4.132M107.722 211.058a5.117 5.117 0 0 0-1.568 4.7M103.305 211.443a4.886 4.886 0 0 0-.855 4.011M189.512 210.546s-1.906 3.207 0 4.908M186.081 210.546a2.358 2.358 0 0 0-1.086 2.454M174.136 208.201s-2.8.565-2.416 2.344"/>
        <path class="illus-dog-playfull-g" d="M140.001 187.71a26.79 26.79 0 0 1 1.572 8.21c.1 4.454.7 9 .7 9M120.934 185.001a7.021 7.021 0 0 0-4.07 4.629c-1.136 3.668-5.863 9.49-6.076 14.353"/>
    </g>
</svg>
